#!OML:ASF F:\VICON\USERDATA\Patient Classification 1\PLAYGROUND\JustinFriday\JustinFriday.ASF
:FULLY-SPECIFIED
:DEGREES
1747
root 13.6711 18.4926 54.4124 -362.367 -195.938 2.89468
lowerback 26.659 -0.752814 -8.67026
upperback 13.6544 0.266083 -2.02873
thorax 0.738391 1.07847 2.6616
lowerneck -21.1506 2.51597 -4.88215
upperneck 26.5981 5.42195 2.27021
head 12.0787 2.45416 2.60793
rclavicle -5.80451e-014 -3.18055e-014
rhumerus 56.9605 27.5869 -55.5856
rradius 58.9858
rwrist 2.35873
rhand -23.7454 -17.7749
rfingers 7.12502
rthumb 2.72328 -47.7373
lclavicle -5.80451e-014 -3.18055e-014
lhumerus 49.9069 0.258859 62.6166
lradius 27.6431
lwrist -16.1509
lhand -21.0982 -11.9696
lfingers 7.12502
lthumb 5.27956 17.9446
rfemur -62.8487 0.634714 27.9541
rtibia 89.6179
rfoot -23.5336 0.325937
rtoes -2.31181
lfemur 1.44538 9.66196 -20.5345
ltibia 12.0479
lfoot -7.22335 5.18026
ltoes 4.74661
1748
root 13.6823 18.4799 54.4352 -362.914 -196.295 2.85584
lowerback 27.109 -0.421605 -9.27766
upperback 13.706 0.566228 -1.94
thorax 0.591865 1.21787 3.02053
lowerneck -20.5566 2.49382 -5.13722
upperneck 26.0754 5.38225 2.34625
head 11.7486 2.43546 2.63578
rclavicle -4.29375e-014 5.725e-014
rhumerus 55.3357 28.1621 -55.4974
rradius 59.5408
rwrist 2.976
rhand -24.5075 -16.8404
rfingers 7.12502
rthumb 1.98723 -46.8109
lclavicle -4.29375e-014 5.725e-014
lhumerus 49.906 0.076623 62.3501
lradius 27.6451
lwrist -15.9842
lhand -21.2072 -11.6184
lfingers 7.12502
lthumb 5.17431 18.2985
rfemur -61.744 1.06359 27.7533
rtibia 90.356
rfoot -23.2394 -0.955474
rtoes -2.80497
lfemur 2.43646 9.96427 -20.3452
ltibia 11.2679
lfoot -7.30361 5.00968
ltoes 3.56489
1749
root 13.6928 18.4717 54.4551 -363.357 -196.596 2.93099
lowerback 27.4924 -0.0866601 -9.75469
upperback 13.7 0.872226 -1.77206
thorax 0.396724 1.35615 3.38823
lowerneck -21.4458 2.2284 -4.84164
upperneck 26.4196 4.94795 2.31271
head 12.088 2.24424 2.54305
rclavicle 7.39479e-014 -4.77083e-015
rhumerus 53.5181 28.9508 -55.1964
rradius 59.9674
rwrist 4.42069
rhand -26.8756 -17.5434
rfingers 7.12502
rthumb -0.299932 -47.5229
lclavicle 7.39479e-014 -4.77083e-015
lhumerus 50.1406 0.524479 63.5483
lradius 27.1104
lwrist -16.988
lhand -20.9868 -12.1709
lfingers 7.12502
lthumb 5.38709 17.7406
rfemur -60.625 1.01509 27.8217
rtibia 90.9524
rfoot -22.9533 -2.28908
rtoes -2.94458
lfemur 3.21215 10.4682 -20.0153
ltibia 10.735
lfoot -7.17998 4.68487
ltoes 4.85715
1750
root 13.7045 18.4764 54.4685 -363.617 -196.916 3.07447
lowerback 27.5926 0.199136 -10.084
upperback 13.6913 1.15371 -1.61645
thorax 0.31874 1.47564 3.66901
lowerneck -21.5641 2.05556 -4.90091
upperneck 26.4131 4.6914 2.39513
head 12.1162 2.13221 2.54591
rclavicle 3.10104e-014 1.27222e-014
rhumerus 51.5524 29.4735 -55.6414
rradius 60.2915
rwrist 5.04069
rhand -25.1472 -16.0995
rfingers 7.12502
rthumb 1.36944 -46.0749
lclavicle 3.10104e-014 1.27222e-014
lhumerus 50.3046 0.624718 64.084
lradius 26.6578
lwrist -17.0974
lhand -20.699 -12.4929
lfingers 7.12502
lthumb 5.66499 17.4114
rfemur -59.4861 1.17318 27.8747
rtibia 91.3715
rfoot -22.5563 -3.72629
rtoes -3.8504
lfemur 3.84613 11.0884 -19.6279
ltibia 10.1891
lfoot -6.8982 4.27255
ltoes 5.27162
1751
root 13.7173 18.4661 54.4791 -364.07 -197.126 2.83103
lowerback 27.6927 0.422066 -10.6808
upperback 13.7675 1.3355 -1.62604
thorax 0.366873 1.54815 3.947
lowerneck -20.9265 1.95529 -5.42026
upperneck 25.9114 4.57291 2.69322
head 11.7771 2.08111 2.69085
rclavicle 3.65764e-014 1.43125e-014
rhumerus 49.6448 29.943 -56.2765
rradius 60.3336
rwrist 5.94669
rhand -23.6743 -14.2627
rfingers 7.12502
rthumb 2.79187 -44.2242
lclavicle 3.65764e-014 1.43125e-014
lhumerus 50.4719 0.611581 64.1763
lradius 26.3795
lwrist -16.9621
lhand -20.5318 -12.2038
lfingers 7.12502
lthumb 5.82635 17.6961
rfemur -58.3107 1.27332 27.3942
rtibia 91.8853
rfoot -21.9082 -4.26934
rtoes -1.77908
lfemur 4.5127 11.4257 -19.6622
ltibia 9.77115
lfoot -6.31774 4.31563
ltoes 6.15969
1752
root 13.7374 18.4578 54.4945 -364.51 -197.485 2.29759
lowerback 27.6557 0.755665 -11.6571
upperback 13.8039 1.56819 -1.70691
thorax 0.44091 1.62266 4.34782
lowerneck -21.0268 1.80973 -5.53496
upperneck 25.8197 4.36462 2.77863
head 11.7665 1.98483 2.7084
rclavicle 5.08889e-014 -4.77083e-015
rhumerus 47.6383 30.4504 -57.1162
rradius 60.5553
rwrist 5.53973
rhand -24.6908 -14.7125
rfingers 7.12502
rthumb 1.81016 -44.6845
lclavicle 5.08889e-014 -4.77083e-015
lhumerus 50.5633 0.567551 64.078
lradius 26.2275
lwrist -16.9344
lhand -20.4921 -11.6293
lfingers 7.12502
lthumb 5.86468 18.2695
rfemur -57.2703 1.78257 26.5895
rtibia 92.3552
rfoot -20.8602 -5.01153
rtoes -0.54615
lfemur 4.92441 11.9337 -19.9684
ltibia 9.6297
lfoot -6.77025 3.8675
ltoes 6.12047
